<mxfile host="65bd71144e">
    <diagram name="ページ1" id="NA4neSgEC9G-7WFo4zGh">
        <mxGraphModel dx="3760" dy="2193" grid="1" gridSize="10" guides="1" tooltips="1" connect="1" arrows="1" fold="1" page="1" pageScale="1" pageWidth="827" pageHeight="1169" math="0" shadow="0">
            <root>
                <mxCell id="mGl5ej-jf7avWnhUODOQ-0"/>
                <mxCell id="mGl5ej-jf7avWnhUODOQ-1" parent="mGl5ej-jf7avWnhUODOQ-0"/>
                <mxCell id="mGl5ej-jf7avWnhUODOQ-3" style="edgeStyle=none;html=1;endArrow=none;endFill=0;" parent="mGl5ej-jf7avWnhUODOQ-1" source="mGl5ej-jf7avWnhUODOQ-7" target="mGl5ej-jf7avWnhUODOQ-11" edge="1">
                    <mxGeometry relative="1" as="geometry"/>
                </mxCell>
                <mxCell id="mGl5ej-jf7avWnhUODOQ-4" style="edgeStyle=none;html=1;endArrow=none;endFill=0;" parent="mGl5ej-jf7avWnhUODOQ-1" source="mGl5ej-jf7avWnhUODOQ-7" target="mGl5ej-jf7avWnhUODOQ-26" edge="1">
                    <mxGeometry relative="1" as="geometry"/>
                </mxCell>
                <mxCell id="mGl5ej-jf7avWnhUODOQ-5" style="edgeStyle=none;html=1;endArrow=none;endFill=0;" parent="mGl5ej-jf7avWnhUODOQ-1" source="mGl5ej-jf7avWnhUODOQ-7" target="mGl5ej-jf7avWnhUODOQ-46" edge="1">
                    <mxGeometry relative="1" as="geometry"/>
                </mxCell>
                <mxCell id="mGl5ej-jf7avWnhUODOQ-7" value="食事人" style="shape=umlActor;verticalLabelPosition=bottom;verticalAlign=top;html=1;outlineConnect=0;" parent="mGl5ej-jf7avWnhUODOQ-1" vertex="1">
                    <mxGeometry x="-2430" y="-735" width="30" height="60" as="geometry"/>
                </mxCell>
                <mxCell id="mGl5ej-jf7avWnhUODOQ-8" style="edgeStyle=none;html=1;endArrow=none;endFill=0;" parent="mGl5ej-jf7avWnhUODOQ-1" source="mGl5ej-jf7avWnhUODOQ-9" target="mGl5ej-jf7avWnhUODOQ-30" edge="1">
                    <mxGeometry relative="1" as="geometry">
                        <mxPoint x="-630" y="-1293" as="targetPoint"/>
                    </mxGeometry>
                </mxCell>
                <mxCell id="S4GQHQxIyMnKFg9J_kwv-1" style="edgeStyle=none;shape=connector;rounded=1;jumpStyle=arc;jumpSize=10;html=1;labelBackgroundColor=default;strokeColor=default;fontFamily=Helvetica;fontSize=11;fontColor=default;endArrow=none;endFill=0;" parent="mGl5ej-jf7avWnhUODOQ-1" source="mGl5ej-jf7avWnhUODOQ-9" target="mGl5ej-jf7avWnhUODOQ-7" edge="1">
                    <mxGeometry relative="1" as="geometry"/>
                </mxCell>
                <mxCell id="mGl5ej-jf7avWnhUODOQ-9" value="予約する" style="ellipse;whiteSpace=wrap;html=1;" parent="mGl5ej-jf7avWnhUODOQ-1" vertex="1">
                    <mxGeometry x="-2190" y="-785" width="110" height="50" as="geometry"/>
                </mxCell>
                <mxCell id="mGl5ej-jf7avWnhUODOQ-10" style="edgeStyle=none;html=1;endArrow=none;endFill=0;" parent="mGl5ej-jf7avWnhUODOQ-1" source="mGl5ej-jf7avWnhUODOQ-11" target="mGl5ej-jf7avWnhUODOQ-30" edge="1">
                    <mxGeometry relative="1" as="geometry">
                        <mxPoint x="-630" y="-1275.2459016393443" as="targetPoint"/>
                    </mxGeometry>
                </mxCell>
                <mxCell id="mGl5ej-jf7avWnhUODOQ-11" value="予約を&lt;br&gt;キャンセルする" style="ellipse;whiteSpace=wrap;html=1;" parent="mGl5ej-jf7avWnhUODOQ-1" vertex="1">
                    <mxGeometry x="-2210" y="-695" width="110" height="50" as="geometry"/>
                </mxCell>
                <mxCell id="mGl5ej-jf7avWnhUODOQ-12" style="edgeStyle=none;html=1;endArrow=none;endFill=0;" parent="mGl5ej-jf7avWnhUODOQ-1" source="0" target="mGl5ej-jf7avWnhUODOQ-36" edge="1">
                    <mxGeometry relative="1" as="geometry"/>
                </mxCell>
                <mxCell id="mGl5ej-jf7avWnhUODOQ-13" style="edgeStyle=none;html=1;endArrow=none;endFill=0;" parent="mGl5ej-jf7avWnhUODOQ-1" source="0" target="mGl5ej-jf7avWnhUODOQ-40" edge="1">
                    <mxGeometry relative="1" as="geometry"/>
                </mxCell>
                <mxCell id="mGl5ej-jf7avWnhUODOQ-15" value="店舗スタッフ" style="shape=umlActor;verticalLabelPosition=bottom;verticalAlign=top;html=1;outlineConnect=0;" parent="mGl5ej-jf7avWnhUODOQ-1" vertex="1">
                    <mxGeometry x="-1590" y="-815" width="30" height="60" as="geometry"/>
                </mxCell>
                <mxCell id="mGl5ej-jf7avWnhUODOQ-16" style="edgeStyle=none;html=1;endArrow=none;endFill=0;" parent="mGl5ej-jf7avWnhUODOQ-1" source="mGl5ej-jf7avWnhUODOQ-15" target="mGl5ej-jf7avWnhUODOQ-31" edge="1">
                    <mxGeometry relative="1" as="geometry"/>
                </mxCell>
                <mxCell id="mGl5ej-jf7avWnhUODOQ-17" style="edgeStyle=none;html=1;endArrow=none;endFill=0;" parent="mGl5ej-jf7avWnhUODOQ-1" source="mGl5ej-jf7avWnhUODOQ-15" target="mGl5ej-jf7avWnhUODOQ-33" edge="1">
                    <mxGeometry relative="1" as="geometry"/>
                </mxCell>
                <mxCell id="mGl5ej-jf7avWnhUODOQ-19" style="edgeStyle=none;html=1;endArrow=none;endFill=0;" parent="mGl5ej-jf7avWnhUODOQ-1" source="mGl5ej-jf7avWnhUODOQ-21" target="mGl5ej-jf7avWnhUODOQ-7" edge="1">
                    <mxGeometry relative="1" as="geometry">
                        <mxPoint x="-510" y="-1295.1724137931035" as="targetPoint"/>
                    </mxGeometry>
                </mxCell>
                <mxCell id="mGl5ej-jf7avWnhUODOQ-20" style="edgeStyle=none;html=1;endArrow=none;endFill=0;" parent="mGl5ej-jf7avWnhUODOQ-1" source="mGl5ej-jf7avWnhUODOQ-21" target="mGl5ej-jf7avWnhUODOQ-30" edge="1">
                    <mxGeometry relative="1" as="geometry"/>
                </mxCell>
                <mxCell id="mGl5ej-jf7avWnhUODOQ-21" value="席に案内する" style="ellipse;whiteSpace=wrap;html=1;" parent="mGl5ej-jf7avWnhUODOQ-1" vertex="1">
                    <mxGeometry x="-2100" y="-910" width="110" height="50" as="geometry"/>
                </mxCell>
                <mxCell id="mGl5ej-jf7avWnhUODOQ-22" style="edgeStyle=none;html=1;endArrow=none;endFill=0;" parent="mGl5ej-jf7avWnhUODOQ-1" source="mGl5ej-jf7avWnhUODOQ-23" target="mGl5ej-jf7avWnhUODOQ-30" edge="1">
                    <mxGeometry relative="1" as="geometry">
                        <mxPoint x="-510" y="-1275.2459016393443" as="targetPoint"/>
                    </mxGeometry>
                </mxCell>
                <mxCell id="mGl5ej-jf7avWnhUODOQ-23" value="キャンセル料を&lt;br&gt;請求する" style="ellipse;whiteSpace=wrap;html=1;" parent="mGl5ej-jf7avWnhUODOQ-1" vertex="1">
                    <mxGeometry x="-1805" y="-680" width="110" height="50" as="geometry"/>
                </mxCell>
                <mxCell id="mGl5ej-jf7avWnhUODOQ-24" style="edgeStyle=none;html=1;endArrow=none;endFill=0;" parent="mGl5ej-jf7avWnhUODOQ-1" source="mGl5ej-jf7avWnhUODOQ-26" target="mGl5ej-jf7avWnhUODOQ-29" edge="1">
                    <mxGeometry relative="1" as="geometry">
                        <mxPoint x="-630" y="-1118.9830508474577" as="targetPoint"/>
                    </mxGeometry>
                </mxCell>
                <mxCell id="mGl5ej-jf7avWnhUODOQ-25" style="edgeStyle=none;html=1;endArrow=none;endFill=0;" parent="mGl5ej-jf7avWnhUODOQ-1" source="mGl5ej-jf7avWnhUODOQ-26" target="mGl5ej-jf7avWnhUODOQ-54" edge="1">
                    <mxGeometry relative="1" as="geometry"/>
                </mxCell>
                <mxCell id="mGl5ej-jf7avWnhUODOQ-26" value="料理を注文する" style="ellipse;whiteSpace=wrap;html=1;" parent="mGl5ej-jf7avWnhUODOQ-1" vertex="1">
                    <mxGeometry x="-2297" y="-570" width="110" height="50" as="geometry"/>
                </mxCell>
                <mxCell id="mGl5ej-jf7avWnhUODOQ-27" style="edgeStyle=none;html=1;endArrow=none;endFill=0;" parent="mGl5ej-jf7avWnhUODOQ-1" source="mGl5ej-jf7avWnhUODOQ-28" target="mGl5ej-jf7avWnhUODOQ-29" edge="1">
                    <mxGeometry relative="1" as="geometry">
                        <mxPoint x="-510" y="-1116.6037735849056" as="targetPoint"/>
                    </mxGeometry>
                </mxCell>
                <mxCell id="mGl5ej-jf7avWnhUODOQ-28" value="メニュー表を&lt;br&gt;更新する" style="ellipse;whiteSpace=wrap;html=1;" parent="mGl5ej-jf7avWnhUODOQ-1" vertex="1">
                    <mxGeometry x="-1895" y="-315" width="110" height="50" as="geometry"/>
                </mxCell>
                <mxCell id="mGl5ej-jf7avWnhUODOQ-29" value="メニュー表" style="rounded=0;whiteSpace=wrap;html=1;" parent="mGl5ej-jf7avWnhUODOQ-1" vertex="1">
                    <mxGeometry x="-2187" y="-320" width="120" height="60" as="geometry"/>
                </mxCell>
                <mxCell id="mGl5ej-jf7avWnhUODOQ-30" value="予約" style="rounded=0;whiteSpace=wrap;html=1;" parent="mGl5ej-jf7avWnhUODOQ-1" vertex="1">
                    <mxGeometry x="-1900" y="-790" width="120" height="60" as="geometry"/>
                </mxCell>
                <mxCell id="mGl5ej-jf7avWnhUODOQ-31" value="会計する" style="ellipse;whiteSpace=wrap;html=1;" parent="mGl5ej-jf7avWnhUODOQ-1" vertex="1">
                    <mxGeometry x="-1805" y="-465" width="110" height="50" as="geometry"/>
                </mxCell>
                <mxCell id="mGl5ej-jf7avWnhUODOQ-32" style="edgeStyle=none;html=1;endArrow=none;endFill=0;" parent="mGl5ej-jf7avWnhUODOQ-1" source="mGl5ej-jf7avWnhUODOQ-33" target="mGl5ej-jf7avWnhUODOQ-34" edge="1">
                    <mxGeometry relative="1" as="geometry"/>
                </mxCell>
                <mxCell id="mGl5ej-jf7avWnhUODOQ-33" value="売上に反映する" style="ellipse;whiteSpace=wrap;html=1;" parent="mGl5ej-jf7avWnhUODOQ-1" vertex="1">
                    <mxGeometry x="-1490" y="-755" width="110" height="50" as="geometry"/>
                </mxCell>
                <mxCell id="mGl5ej-jf7avWnhUODOQ-34" value="売上" style="rounded=0;whiteSpace=wrap;html=1;" parent="mGl5ej-jf7avWnhUODOQ-1" vertex="1">
                    <mxGeometry x="-1335" y="-695" width="120" height="60" as="geometry"/>
                </mxCell>
                <mxCell id="mGl5ej-jf7avWnhUODOQ-35" style="edgeStyle=none;html=1;endArrow=none;endFill=0;" parent="mGl5ej-jf7avWnhUODOQ-1" source="mGl5ej-jf7avWnhUODOQ-36" target="mGl5ej-jf7avWnhUODOQ-34" edge="1">
                    <mxGeometry relative="1" as="geometry"/>
                </mxCell>
                <mxCell id="mGl5ej-jf7avWnhUODOQ-36" value="売上を確認する" style="ellipse;whiteSpace=wrap;html=1;" parent="mGl5ej-jf7avWnhUODOQ-1" vertex="1">
                    <mxGeometry x="-1480" y="-590" width="110" height="50" as="geometry"/>
                </mxCell>
                <mxCell id="mGl5ej-jf7avWnhUODOQ-37" value="在庫" style="rounded=0;whiteSpace=wrap;html=1;" parent="mGl5ej-jf7avWnhUODOQ-1" vertex="1">
                    <mxGeometry x="-1140" y="-695" width="120" height="60" as="geometry"/>
                </mxCell>
                <mxCell id="mGl5ej-jf7avWnhUODOQ-38" style="edgeStyle=none;html=1;endArrow=none;endFill=0;" parent="mGl5ej-jf7avWnhUODOQ-1" source="mGl5ej-jf7avWnhUODOQ-40" target="mGl5ej-jf7avWnhUODOQ-37" edge="1">
                    <mxGeometry relative="1" as="geometry"/>
                </mxCell>
                <mxCell id="mGl5ej-jf7avWnhUODOQ-40" value="発注する" style="ellipse;whiteSpace=wrap;html=1;" parent="mGl5ej-jf7avWnhUODOQ-1" vertex="1">
                    <mxGeometry x="-1330" y="-440" width="110" height="50" as="geometry"/>
                </mxCell>
                <mxCell id="mGl5ej-jf7avWnhUODOQ-42" value="卸業者" style="shape=cube;whiteSpace=wrap;html=1;boundedLbl=1;backgroundOutline=1;darkOpacity=0.05;darkOpacity2=0.1;size=10;" parent="mGl5ej-jf7avWnhUODOQ-1" vertex="1">
                    <mxGeometry x="-1140" y="-985" width="120" height="60" as="geometry"/>
                </mxCell>
                <mxCell id="mGl5ej-jf7avWnhUODOQ-43" style="edgeStyle=none;html=1;endArrow=none;endFill=0;" parent="mGl5ej-jf7avWnhUODOQ-1" source="mGl5ej-jf7avWnhUODOQ-44" target="mGl5ej-jf7avWnhUODOQ-37" edge="1">
                    <mxGeometry relative="1" as="geometry"/>
                </mxCell>
                <mxCell id="1" style="edgeStyle=none;shape=connector;rounded=1;jumpStyle=arc;jumpSize=10;html=1;labelBackgroundColor=default;strokeColor=default;fontFamily=Helvetica;fontSize=11;fontColor=default;endArrow=none;endFill=0;" edge="1" parent="mGl5ej-jf7avWnhUODOQ-1" source="mGl5ej-jf7avWnhUODOQ-44" target="mGl5ej-jf7avWnhUODOQ-42">
                    <mxGeometry relative="1" as="geometry"/>
                </mxCell>
                <mxCell id="mGl5ej-jf7avWnhUODOQ-44" value="材料を提供する" style="ellipse;whiteSpace=wrap;html=1;" parent="mGl5ej-jf7avWnhUODOQ-1" vertex="1">
                    <mxGeometry x="-1135" y="-850" width="110" height="50" as="geometry"/>
                </mxCell>
                <mxCell id="mGl5ej-jf7avWnhUODOQ-45" style="edgeStyle=none;html=1;endArrow=none;endFill=0;" parent="mGl5ej-jf7avWnhUODOQ-1" source="mGl5ej-jf7avWnhUODOQ-46" target="mGl5ej-jf7avWnhUODOQ-49" edge="1">
                    <mxGeometry relative="1" as="geometry"/>
                </mxCell>
                <mxCell id="mGl5ej-jf7avWnhUODOQ-47" style="edgeStyle=none;html=1;endArrow=none;endFill=0;" parent="mGl5ej-jf7avWnhUODOQ-1" source="mGl5ej-jf7avWnhUODOQ-15" target="mGl5ej-jf7avWnhUODOQ-52" edge="1">
                    <mxGeometry relative="1" as="geometry"/>
                </mxCell>
                <mxCell id="mGl5ej-jf7avWnhUODOQ-49" value="料理" style="rounded=0;whiteSpace=wrap;html=1;" parent="mGl5ej-jf7avWnhUODOQ-1" vertex="1">
                    <mxGeometry x="-1970" y="-985" width="120" height="60" as="geometry"/>
                </mxCell>
                <mxCell id="mGl5ej-jf7avWnhUODOQ-50" style="edgeStyle=none;html=1;endArrow=none;endFill=0;" parent="mGl5ej-jf7avWnhUODOQ-1" source="mGl5ej-jf7avWnhUODOQ-52" target="mGl5ej-jf7avWnhUODOQ-49" edge="1">
                    <mxGeometry relative="1" as="geometry"/>
                </mxCell>
                <mxCell id="mGl5ej-jf7avWnhUODOQ-51" style="edgeStyle=none;shape=connector;rounded=1;jumpStyle=arc;jumpSize=10;html=1;labelBackgroundColor=default;strokeColor=default;fontFamily=Helvetica;fontSize=11;fontColor=default;endArrow=none;endFill=0;" parent="mGl5ej-jf7avWnhUODOQ-1" source="mGl5ej-jf7avWnhUODOQ-52" target="mGl5ej-jf7avWnhUODOQ-37" edge="1">
                    <mxGeometry relative="1" as="geometry"/>
                </mxCell>
                <mxCell id="mGl5ej-jf7avWnhUODOQ-52" value="調理する" style="ellipse;whiteSpace=wrap;html=1;" parent="mGl5ej-jf7avWnhUODOQ-1" vertex="1">
                    <mxGeometry x="-1750" y="-980" width="110" height="50" as="geometry"/>
                </mxCell>
                <mxCell id="mGl5ej-jf7avWnhUODOQ-53" style="edgeStyle=none;html=1;endArrow=none;endFill=0;" parent="mGl5ej-jf7avWnhUODOQ-1" source="mGl5ej-jf7avWnhUODOQ-54" target="mGl5ej-jf7avWnhUODOQ-31" edge="1">
                    <mxGeometry relative="1" as="geometry"/>
                </mxCell>
                <mxCell id="mGl5ej-jf7avWnhUODOQ-54" value="注文履歴" style="rounded=0;whiteSpace=wrap;html=1;" parent="mGl5ej-jf7avWnhUODOQ-1" vertex="1">
                    <mxGeometry x="-2127" y="-470" width="120" height="60" as="geometry"/>
                </mxCell>
                <mxCell id="mGl5ej-jf7avWnhUODOQ-55" style="edgeStyle=none;html=1;endArrow=none;endFill=0;jumpStyle=arc;jumpSize=10;" parent="mGl5ej-jf7avWnhUODOQ-1" source="0" target="mGl5ej-jf7avWnhUODOQ-28" edge="1">
                    <mxGeometry relative="1" as="geometry"/>
                </mxCell>
                <mxCell id="mGl5ej-jf7avWnhUODOQ-56" style="edgeStyle=none;jumpStyle=arc;jumpSize=10;html=1;endArrow=none;endFill=0;" parent="mGl5ej-jf7avWnhUODOQ-1" source="mGl5ej-jf7avWnhUODOQ-57" target="mGl5ej-jf7avWnhUODOQ-31" edge="1">
                    <mxGeometry relative="1" as="geometry"/>
                </mxCell>
                <mxCell id="mGl5ej-jf7avWnhUODOQ-57" value="決済事業者" style="shape=cube;whiteSpace=wrap;html=1;boundedLbl=1;backgroundOutline=1;darkOpacity=0.05;darkOpacity2=0.1;size=10;" parent="mGl5ej-jf7avWnhUODOQ-1" vertex="1">
                    <mxGeometry x="-1980" y="-630" width="120" height="60" as="geometry"/>
                </mxCell>
                <mxCell id="mGl5ej-jf7avWnhUODOQ-58" style="edgeStyle=none;html=1;endArrow=none;endFill=0;jumpStyle=arc;jumpSize=10;" parent="mGl5ej-jf7avWnhUODOQ-1" source="mGl5ej-jf7avWnhUODOQ-15" target="mGl5ej-jf7avWnhUODOQ-21" edge="1">
                    <mxGeometry relative="1" as="geometry"/>
                </mxCell>
                <mxCell id="S4GQHQxIyMnKFg9J_kwv-0" value="" style="edgeStyle=none;html=1;endArrow=none;endFill=0;" parent="mGl5ej-jf7avWnhUODOQ-1" source="mGl5ej-jf7avWnhUODOQ-7" target="mGl5ej-jf7avWnhUODOQ-46" edge="1">
                    <mxGeometry relative="1" as="geometry">
                        <mxPoint x="-2140" y="-1095.3030303030305" as="sourcePoint"/>
                        <mxPoint x="-1219.9457593556463" y="-1113.8899846594818" as="targetPoint"/>
                    </mxGeometry>
                </mxCell>
                <mxCell id="mGl5ej-jf7avWnhUODOQ-46" value="食事する" style="ellipse;whiteSpace=wrap;html=1;" parent="mGl5ej-jf7avWnhUODOQ-1" vertex="1">
                    <mxGeometry x="-2210" y="-980" width="110" height="50" as="geometry"/>
                </mxCell>
                <mxCell id="mGl5ej-jf7avWnhUODOQ-6" style="edgeStyle=none;jumpStyle=arc;jumpSize=10;html=1;endArrow=none;endFill=0;" parent="mGl5ej-jf7avWnhUODOQ-1" source="mGl5ej-jf7avWnhUODOQ-7" target="mGl5ej-jf7avWnhUODOQ-31" edge="1">
                    <mxGeometry relative="1" as="geometry"/>
                </mxCell>
                <mxCell id="0" value="店長" style="shape=umlActor;verticalLabelPosition=bottom;verticalAlign=top;html=1;outlineConnect=0;" vertex="1" parent="mGl5ej-jf7avWnhUODOQ-1">
                    <mxGeometry x="-1520" y="-450" width="30" height="60" as="geometry"/>
                </mxCell>
                <mxCell id="mGl5ej-jf7avWnhUODOQ-14" style="edgeStyle=none;html=1;endArrow=none;endFill=0;jumpStyle=arc;jumpSize=10;" parent="mGl5ej-jf7avWnhUODOQ-1" source="0" target="mGl5ej-jf7avWnhUODOQ-23" edge="1">
                    <mxGeometry relative="1" as="geometry"/>
                </mxCell>
            </root>
        </mxGraphModel>
    </diagram>
</mxfile>